<svg width="31" height="32" viewBox="0 0 31 32" fill="none" xmlns="http://www.w3.org/2000/svg">
    <path
        d="M27.125 7H19.375C18.3473 7 17.3616 7.42139 16.635 8.17163C15.9083 8.92163 15.5 9.93921 15.5 11C15.5 9.93921 15.0917 8.92163 14.365 8.17163C13.6384 7.42139 12.6527 7 11.625 7H3.875C3.61809 7 3.37164 7.10547 3.19 7.29297C3.0083 7.48047 2.90625 7.73486 2.90625 8V24C2.90625 24.2651 3.0083 24.5195 3.19 24.707C3.37164 24.8945 3.61809 25 3.875 25H11.625C12.6527 25 13.6384 25.4214 14.365 26.1716C15.0917 26.9216 15.5 27.9392 15.5 29C15.5 27.9392 15.9083 26.9216 16.635 26.1716C17.3616 25.4214 18.3473 25 19.375 25H27.125C27.3819 25 27.6284 24.8945 27.81 24.707C27.9917 24.5195 28.0938 24.2651 28.0938 24V8C28.0938 7.73486 27.9917 7.48047 27.81 7.29297C27.6284 7.10547 27.3819 7 27.125 7Z"
        fill="#10316B" fill-opacity="0.1" />
    <path
        d="M15.95 25.4645C14.5313 26.9289 14.5313 29 14.5313 29C14.5313 29.5523 14.965 30 15.5 30C16.035 30 16.4688 29.5523 16.4688 29C16.4688 27.7574 17.32 26.8787 17.32 26.8787C18.1712 26 19.375 26 19.375 26H27.125C27.9275 26 28.495 25.4142 28.495 25.4142C29.0625 24.8284 29.0625 24 29.0625 24V8C29.0625 7.17157 28.495 6.58579 28.495 6.58579C27.9275 6 27.125 6 27.125 6H19.375C17.3687 6 15.95 7.46447 15.95 7.46447C14.5312 8.92893 14.5312 11 14.5312 11C14.5313 11.5523 14.965 12 15.5 12C15.7569 12 16.0033 11.8946 16.185 11.7071C16.3667 11.5196 16.4688 11.2652 16.4688 11C16.4688 9.75736 17.32 8.87868 17.32 8.87868C18.1712 8 19.375 8 19.375 8H27.125V24H19.375C17.3687 24 15.95 25.4645 15.95 25.4645Z"
        fill="#161718" />
    <path fill-rule="evenodd" clip-rule="evenodd"
        d="M1.9375 8C1.9375 8 1.9375 7.17157 2.50498 6.58579C2.50498 6.58579 3.07246 6 3.875 6H11.625C11.625 6 13.6313 6 15.05 7.46447C15.05 7.46447 16.4688 8.92893 16.4688 11V29C16.4688 29.5523 16.035 30 15.5 30C14.965 30 14.5312 29.5523 14.5312 29C14.5312 29 14.5312 27.7574 13.68 26.8787C13.68 26.8787 12.8288 26 11.625 26H3.875C3.875 26 3.07246 26 2.50498 25.4142C2.50498 25.4142 1.9375 24.8284 1.9375 24V8ZM14.5312 11V24.9934C14.5312 24.9934 13.2774 24 11.625 24H3.875V8H11.625C11.625 8 12.8288 8 13.68 8.87868C13.68 8.87868 14.5312 9.75736 14.5312 11Z"
        fill="#161718" />
</svg>
    