<svg width="51" height="31" viewBox="0 0 51 31" fill="none" xmlns="http://www.w3.org/2000/svg">
    <path fill-rule="evenodd" clip-rule="evenodd"
        d="M30.2075 2.93848C31.0671 2.93861 31.9048 3.10383 32.6019 3.41074C33.2991 3.71764 33.8204 4.15066 34.092 4.64848L35.2039 6.68848H41.9204C42.4635 6.68848 42.9844 6.82017 43.3684 7.05459C43.7524 7.28901 43.9681 7.60696 43.9681 7.93848C43.9681 8.27 43.7524 8.58794 43.3684 8.82236C42.9844 9.05678 42.4635 9.18848 41.9204 9.18848H39.8727V24.1885C39.8727 25.183 39.2255 26.1369 38.0734 26.8401C36.9214 27.5434 35.3588 27.9385 33.7296 27.9385H17.3479C15.7187 27.9385 14.1561 27.5434 13.0041 26.8401C11.852 26.1369 11.2048 25.183 11.2048 24.1885V9.18848H9.15708C8.614 9.18848 8.09315 9.05678 7.70913 8.82236C7.32512 8.58794 7.10938 8.27 7.10938 7.93848C7.10938 7.60696 7.32512 7.28901 7.70913 7.05459C8.09315 6.82017 8.614 6.68848 9.15708 6.68848H15.8736L16.9855 4.64848C17.2572 4.15046 17.7788 3.71729 18.4764 3.41037C19.174 3.10345 20.0121 2.93835 20.872 2.93848H30.2075ZM35.7773 9.18848H15.3002V24.1885C15.3002 24.52 15.516 24.8379 15.9 25.0724C16.284 25.3068 16.8048 25.4385 17.3479 25.4385H33.7296C34.2727 25.4385 34.7935 25.3068 35.1775 25.0724C35.5616 24.8379 35.7773 24.52 35.7773 24.1885V9.18848ZM30.2075 5.43848H20.87L20.1881 6.68848H30.8894L30.2075 5.43848Z"
        fill="#012128" fill-opacity="0.64" />
</svg>
    