<svg width="114" height="152" viewBox="0 0 114 152" fill="none" xmlns="http://www.w3.org/2000/svg">
<path d="M0 21.625C0 15.8897 2.39607 10.3893 6.66112 6.33382C10.9262 2.27834 16.7108 0 22.7425 0H63.5197C68.042 0.0037855 72.3775 1.71503 75.5732 4.7575L108.72 36.2651C111.916 39.3056 113.711 43.4279 113.712 47.7264V129.75C113.712 135.485 111.316 140.986 107.051 145.041C102.786 149.097 97.0016 151.375 90.9699 151.375H22.7425C16.7108 151.375 10.9262 149.097 6.66112 145.041C2.39607 140.986 0 135.485 0 129.75V21.625ZM22.7425 10.8125C19.7266 10.8125 16.8343 11.9517 14.7018 13.9794C12.5693 16.0071 11.3712 18.7573 11.3712 21.625V129.75C11.3712 132.618 12.5693 135.368 14.7018 137.396C16.8343 139.423 19.7266 140.562 22.7425 140.562H90.9699C93.9857 140.562 96.8781 139.423 99.0106 137.396C101.143 135.368 102.341 132.618 102.341 129.75V54.0625H73.913C69.3893 54.0625 65.0508 52.3537 61.852 49.3121C58.6532 46.2705 56.8562 42.1452 56.8562 37.8438V10.8125H22.7425ZM73.913 43.25H99.9873L68.2274 13.0507V37.8438C68.2274 39.2776 68.8264 40.6527 69.8927 41.6665C70.959 42.6804 72.4051 43.25 73.913 43.25ZM28.4281 75.6875C26.9202 75.6875 25.474 76.2571 24.4078 77.2709C23.3415 78.2848 22.7425 79.6599 22.7425 81.0938C22.7425 82.5276 23.3415 83.9027 24.4078 84.9165C25.474 85.9304 26.9202 86.5 28.4281 86.5H85.2843C86.7922 86.5 88.2384 85.9304 89.3046 84.9165C90.3709 83.9027 90.9699 82.5276 90.9699 81.0938C90.9699 79.6599 90.3709 78.2848 89.3046 77.2709C88.2384 76.2571 86.7922 75.6875 85.2843 75.6875H28.4281ZM22.7425 102.719C22.7425 101.285 23.3415 99.9098 24.4078 98.8959C25.474 97.8821 26.9202 97.3125 28.4281 97.3125H85.2843C86.7922 97.3125 88.2384 97.8821 89.3046 98.8959C90.3709 99.9098 90.9699 101.285 90.9699 102.719C90.9699 104.153 90.3709 105.528 89.3046 106.542C88.2384 107.555 86.7922 108.125 85.2843 108.125H28.4281C26.9202 108.125 25.474 107.555 24.4078 106.542C23.3415 105.528 22.7425 104.153 22.7425 102.719ZM28.4281 118.938C26.9202 118.938 25.474 119.507 24.4078 120.521C23.3415 121.535 22.7425 122.91 22.7425 124.344C22.7425 125.778 23.3415 127.153 24.4078 128.167C25.474 129.18 26.9202 129.75 28.4281 129.75H85.2843C86.7922 129.75 88.2384 129.18 89.3046 128.167C90.3709 127.153 90.9699 125.778 90.9699 124.344C90.9699 122.91 90.3709 121.535 89.3046 120.521C88.2384 119.507 86.7922 118.938 85.2843 118.938H28.4281Z" fill="url(#paint0_linear_322_192)"/>
<defs>
<linearGradient id="paint0_linear_322_192" x1="133" y1="151" x2="-68" y2="-2.21108e-06" gradientUnits="userSpaceOnUse">
<stop stop-color="#224A98"/>
<stop offset="0.595006" stop-color="#77A1F7"/>
<stop offset="1" stop-color="#A4BEF3"/>
</linearGradient>
</defs>
</svg>
