<svg width="26" height="21" viewBox="0 0 26 21" fill="none" xmlns="http://www.w3.org/2000/svg">
    <mask id="path-1-inside-1_322_477" fill="white">
        <path fill-rule="evenodd" clip-rule="evenodd"
            d="M5.67288 7.74908C6.49496 7.74908 7.28336 7.42251 7.86466 6.84122C8.44595 6.25992 8.77252 5.47152 8.77252 4.64945C8.77252 3.82737 8.44595 3.03897 7.86466 2.45768C7.28336 1.87638 6.49496 1.54982 5.67288 1.54982C4.85081 1.54982 4.06241 1.87638 3.48111 2.45768C2.89982 3.03897 2.57325 3.82737 2.57325 4.64945C2.57325 5.47152 2.89982 6.25992 3.48111 6.84122C4.06241 7.42251 4.85081 7.74908 5.67288 7.74908ZM5.67288 9.29889C6.28346 9.29889 6.88805 9.17863 7.45215 8.94498C8.01625 8.71132 8.5288 8.36884 8.96054 7.9371C9.39228 7.50536 9.73476 6.99281 9.96841 6.42871C10.2021 5.86462 10.3223 5.26002 10.3223 4.64945C10.3223 4.03887 10.2021 3.43428 9.96841 2.87018C9.73476 2.30608 9.39228 1.79353 8.96054 1.36179C8.5288 0.930051 8.01625 0.587575 7.45215 0.353918C6.88805 0.120262 6.28346 -9.09826e-09 5.67288 0C4.43977 1.83748e-08 3.25717 0.489851 2.38523 1.36179C1.51329 2.23373 1.02344 3.41634 1.02344 4.64945C1.02344 5.88256 1.51329 7.06516 2.38523 7.9371C3.25717 8.80904 4.43977 9.29889 5.67288 9.29889Z" />
    </mask>
    <path fill-rule="evenodd" clip-rule="evenodd"
        d="M5.67288 7.74908C6.49496 7.74908 7.28336 7.42251 7.86466 6.84122C8.44595 6.25992 8.77252 5.47152 8.77252 4.64945C8.77252 3.82737 8.44595 3.03897 7.86466 2.45768C7.28336 1.87638 6.49496 1.54982 5.67288 1.54982C4.85081 1.54982 4.06241 1.87638 3.48111 2.45768C2.89982 3.03897 2.57325 3.82737 2.57325 4.64945C2.57325 5.47152 2.89982 6.25992 3.48111 6.84122C4.06241 7.42251 4.85081 7.74908 5.67288 7.74908ZM5.67288 9.29889C6.28346 9.29889 6.88805 9.17863 7.45215 8.94498C8.01625 8.71132 8.5288 8.36884 8.96054 7.9371C9.39228 7.50536 9.73476 6.99281 9.96841 6.42871C10.2021 5.86462 10.3223 5.26002 10.3223 4.64945C10.3223 4.03887 10.2021 3.43428 9.96841 2.87018C9.73476 2.30608 9.39228 1.79353 8.96054 1.36179C8.5288 0.930051 8.01625 0.587575 7.45215 0.353918C6.88805 0.120262 6.28346 -9.09826e-09 5.67288 0C4.43977 1.83748e-08 3.25717 0.489851 2.38523 1.36179C1.51329 2.23373 1.02344 3.41634 1.02344 4.64945C1.02344 5.88256 1.51329 7.06516 2.38523 7.9371C3.25717 8.80904 4.43977 9.29889 5.67288 9.29889Z"
        fill="white" />
    <path
        d="M8.77252 4.64945H10.7725H8.77252ZM5.67288 1.54982V-0.450184V1.54982ZM2.57325 4.64945H0.573253H2.57325ZM5.67288 9.29889V11.2989V9.29889ZM5.67288 0V-2V0ZM1.02344 4.64945H-0.976562H1.02344ZM5.67288 9.74908C7.02539 9.74908 8.3225 9.2118 9.27887 8.25543L6.45044 5.427C6.24422 5.63322 5.96452 5.74908 5.67288 5.74908V9.74908ZM9.27887 8.25543C10.2352 7.29906 10.7725 6.00195 10.7725 4.64945H6.77252C6.77252 4.94109 6.65666 5.22078 6.45044 5.427L9.27887 8.25543ZM10.7725 4.64945C10.7725 3.29694 10.2352 1.99983 9.27887 1.04346L6.45044 3.87189C6.65666 4.07811 6.77252 4.35781 6.77252 4.64945H10.7725ZM9.27887 1.04346C8.3225 0.0870963 7.02539 -0.450184 5.67288 -0.450184V3.54982C5.96453 3.54982 6.24422 3.66567 6.45044 3.87189L9.27887 1.04346ZM5.67288 -0.450184C4.32038 -0.450184 3.02327 0.0870963 2.0669 1.04346L4.89533 3.87189C5.10155 3.66567 5.38124 3.54982 5.67288 3.54982V-0.450184ZM2.0669 1.04346C1.11053 1.99983 0.573253 3.29694 0.573253 4.64945H4.57325C4.57325 4.35781 4.68911 4.07811 4.89533 3.87189L2.0669 1.04346ZM0.573253 4.64945C0.573253 6.00195 1.11053 7.29906 2.0669 8.25543L4.89533 5.427C4.68911 5.22078 4.57325 4.94109 4.57325 4.64945H0.573253ZM2.0669 8.25543C3.02327 9.2118 4.32038 9.74908 5.67288 9.74908V5.74908C5.38125 5.74908 5.10155 5.63322 4.89533 5.427L2.0669 8.25543ZM5.67288 11.2989C6.5461 11.2989 7.41077 11.1269 8.21752 10.7927L6.68678 7.09722C6.36534 7.23036 6.02082 7.29889 5.67288 7.29889V11.2989ZM8.21752 10.7927C9.02427 10.4586 9.75729 9.96877 10.3748 9.35132L7.54633 6.52289C7.3003 6.76891 7.00823 6.96407 6.68678 7.09722L8.21752 10.7927ZM10.3748 9.35132C10.9922 8.73386 11.482 8.00083 11.8162 7.19408L8.12065 5.66335C7.98751 5.98479 7.79235 6.27687 7.54633 6.52289L10.3748 9.35132ZM11.8162 7.19408C12.1503 6.38733 12.3223 5.52266 12.3223 4.64945H8.32233C8.32233 4.99738 8.2538 5.3419 8.12065 5.66335L11.8162 7.19408ZM12.3223 4.64945C12.3223 3.77623 12.1503 2.91156 11.8162 2.10481L8.12065 3.63555C8.2538 3.95699 8.32233 4.30152 8.32233 4.64945H12.3223ZM11.8162 2.10481C11.482 1.29806 10.9922 0.565035 10.3748 -0.0524219L7.54633 2.77601C7.79235 3.02203 7.98751 3.3141 8.12065 3.63555L11.8162 2.10481ZM10.3748 -0.0524219C9.75729 -0.66988 9.02427 -1.15967 8.21752 -1.49384L6.68678 2.20168C7.00823 2.33482 7.3003 2.52998 7.54633 2.77601L10.3748 -0.0524219ZM8.21752 -1.49384C7.41077 -1.82801 6.5461 -2 5.67288 -2V2C6.02081 2 6.36534 2.06853 6.68678 2.20168L8.21752 -1.49384ZM5.67288 -2C3.90934 -2 2.21803 -1.29944 0.971016 -0.0524219L3.79944 2.77601C4.29631 2.27914 4.97021 2 5.67288 2V-2ZM0.971016 -0.0524219C-0.275998 1.19459 -0.976562 2.8859 -0.976562 4.64945H3.02344C3.02344 3.94677 3.30257 3.27287 3.79944 2.77601L0.971016 -0.0524219ZM-0.976562 4.64945C-0.976562 6.41299 -0.275998 8.1043 0.971016 9.35132L3.79944 6.52289C3.30258 6.02602 3.02344 5.35212 3.02344 4.64945H-0.976562ZM0.971016 9.35132C2.21803 10.5983 3.90934 11.2989 5.67288 11.2989V7.29889C4.97021 7.29889 4.29631 7.01976 3.79944 6.52289L0.971016 9.35132Z"
        fill="white" mask="url(#path-1-inside-1_322_477)" />
    <mask id="path-3-inside-2_322_477" fill="white">
        <path fill-rule="evenodd" clip-rule="evenodd"
            d="M3.89827 7.58805C3.97043 7.66003 4.02768 7.74554 4.06675 7.83969C4.10582 7.93383 4.12592 8.03476 4.12592 8.13668C4.12592 8.23861 4.10582 8.33954 4.06675 8.43368C4.02768 8.52782 3.97043 8.61334 3.89827 8.68532L3.37443 9.20761C2.36633 10.216 1.79995 11.5834 1.79982 13.0093V15.8858C1.79982 16.0913 1.71817 16.2884 1.57285 16.4337C1.42753 16.579 1.23043 16.6607 1.02491 16.6607C0.819389 16.6607 0.622289 16.579 0.476965 16.4337C0.331642 16.2884 0.25 16.0913 0.25 15.8858V13.0093C0.25022 11.1724 0.979941 9.41085 2.27871 8.11189L2.801 7.58805C2.87298 7.51589 2.95849 7.45863 3.05263 7.41957C3.14678 7.3805 3.2477 7.36039 3.34963 7.36039C3.45156 7.36039 3.55248 7.3805 3.64663 7.41957C3.74077 7.45863 3.82628 7.51589 3.89827 7.58805ZM22.1737 7.1231C22.1015 7.19509 22.0443 7.2806 22.0052 7.37474C21.9661 7.46889 21.946 7.56981 21.946 7.67174C21.946 7.77367 21.9661 7.87459 22.0052 7.96874C22.0443 8.06288 22.1015 8.14839 22.1737 8.22037L22.6975 8.74266C23.1968 9.24191 23.5928 9.83461 23.8629 10.4869C24.1331 11.1392 24.2722 11.8383 24.2721 12.5444V15.8858C24.2721 16.0913 24.3538 16.2884 24.4991 16.4337C24.6444 16.579 24.8415 16.6607 25.047 16.6607C25.2526 16.6607 25.4497 16.579 25.595 16.4337C25.7403 16.2884 25.822 16.0913 25.822 15.8858V12.5444C25.8217 10.7075 25.092 8.9459 23.7932 7.64694L23.271 7.1231C23.199 7.05094 23.1135 6.99369 23.0193 6.95462C22.9252 6.91556 22.8243 6.89545 22.7223 6.89545C22.6204 6.89545 22.5195 6.91556 22.4253 6.95462C22.3312 6.99369 22.2457 7.05094 22.1737 7.1231Z" />
    </mask>
    <path fill-rule="evenodd" clip-rule="evenodd"
        d="M3.89827 7.58805C3.97043 7.66003 4.02768 7.74554 4.06675 7.83969C4.10582 7.93383 4.12592 8.03476 4.12592 8.13668C4.12592 8.23861 4.10582 8.33954 4.06675 8.43368C4.02768 8.52782 3.97043 8.61334 3.89827 8.68532L3.37443 9.20761C2.36633 10.216 1.79995 11.5834 1.79982 13.0093V15.8858C1.79982 16.0913 1.71817 16.2884 1.57285 16.4337C1.42753 16.579 1.23043 16.6607 1.02491 16.6607C0.819389 16.6607 0.622289 16.579 0.476965 16.4337C0.331642 16.2884 0.25 16.0913 0.25 15.8858V13.0093C0.25022 11.1724 0.979941 9.41085 2.27871 8.11189L2.801 7.58805C2.87298 7.51589 2.95849 7.45863 3.05263 7.41957C3.14678 7.3805 3.2477 7.36039 3.34963 7.36039C3.45156 7.36039 3.55248 7.3805 3.64663 7.41957C3.74077 7.45863 3.82628 7.51589 3.89827 7.58805ZM22.1737 7.1231C22.1015 7.19509 22.0443 7.2806 22.0052 7.37474C21.9661 7.46889 21.946 7.56981 21.946 7.67174C21.946 7.77367 21.9661 7.87459 22.0052 7.96874C22.0443 8.06288 22.1015 8.14839 22.1737 8.22037L22.6975 8.74266C23.1968 9.24191 23.5928 9.83461 23.8629 10.4869C24.1331 11.1392 24.2722 11.8383 24.2721 12.5444V15.8858C24.2721 16.0913 24.3538 16.2884 24.4991 16.4337C24.6444 16.579 24.8415 16.6607 25.047 16.6607C25.2526 16.6607 25.4497 16.579 25.595 16.4337C25.7403 16.2884 25.822 16.0913 25.822 15.8858V12.5444C25.8217 10.7075 25.092 8.9459 23.7932 7.64694L23.271 7.1231C23.199 7.05094 23.1135 6.99369 23.0193 6.95462C22.9252 6.91556 22.8243 6.89545 22.7223 6.89545C22.6204 6.89545 22.5195 6.91556 22.4253 6.95462C22.3312 6.99369 22.2457 7.05094 22.1737 7.1231Z"
        fill="white" />
    <path
        d="M3.89827 7.58805L2.48226 9.00048L2.48584 9.00405L3.89827 7.58805ZM4.12592 8.13668H2.12592H4.12592ZM3.89827 8.68532L5.31038 10.1016L5.31069 10.1013L3.89827 8.68532ZM3.37443 9.20761L1.96231 7.7913L1.96002 7.79359L3.37443 9.20761ZM1.79982 13.0093L-0.200184 13.0091V13.0093H1.79982ZM0.25 15.8858H-1.75H0.25ZM0.25 13.0093L-1.75 13.0091V13.0093H0.25ZM2.27871 8.11189L3.69303 9.526L3.69502 9.524L2.27871 8.11189ZM2.801 7.58805L1.385 6.17562L1.38469 6.17593L2.801 7.58805ZM22.1737 7.1231L23.5861 8.53911L23.5897 8.53553L22.1737 7.1231ZM22.1737 8.22037L20.7613 9.63637L20.7616 9.63668L22.1737 8.22037ZM22.6975 8.74266L24.1118 7.32847L24.1096 7.32635L22.6975 8.74266ZM24.2721 12.5444L22.2721 12.5443V12.5444H24.2721ZM25.822 12.5444H27.822V12.5441L25.822 12.5444ZM23.7932 7.64694L22.3769 9.05906L22.3789 9.06105L23.7932 7.64694ZM23.271 7.1231L24.6873 5.71099L24.687 5.71068L23.271 7.1231ZM2.48584 9.00405C2.37175 8.89024 2.28123 8.75505 2.21948 8.60622L5.91403 7.07315C5.77414 6.73604 5.56911 6.42982 5.31069 6.17205L2.48584 9.00405ZM2.21948 8.60622C2.15771 8.45738 2.12592 8.29782 2.12592 8.13668H6.12592C6.12592 7.77169 6.05392 7.41028 5.91403 7.07315L2.21948 8.60622ZM2.12592 8.13668C2.12592 7.97554 2.15771 7.81599 2.21948 7.66715L5.91403 9.20022C6.05392 8.86309 6.12592 8.50168 6.12592 8.13668H2.12592ZM2.21948 7.66715C2.28123 7.51832 2.37175 7.38313 2.48584 7.26932L5.31069 10.1013C5.56911 9.84355 5.77414 9.53733 5.91403 9.20022L2.21948 7.66715ZM2.48615 7.26901L1.96231 7.7913L4.78654 10.6239L5.31038 10.1016L2.48615 7.26901ZM1.96002 7.79359C0.57701 9.17698 -0.200003 11.053 -0.200184 13.0091L3.79982 13.0095C3.7999 12.1139 4.15564 11.255 4.78884 10.6216L1.96002 7.79359ZM-0.200184 13.0093V15.8858H3.79982V13.0093H-0.200184ZM-0.200184 15.8858C-0.200184 15.5608 -0.0711133 15.2492 0.158637 15.0195L2.98706 17.8479C3.50746 17.3275 3.79982 16.6217 3.79982 15.8858H-0.200184ZM0.158637 15.0195C0.388388 14.7897 0.699997 14.6607 1.02491 14.6607V18.6607C1.76086 18.6607 2.46667 18.3683 2.98706 17.8479L0.158637 15.0195ZM1.02491 14.6607C1.34982 14.6607 1.66143 14.7897 1.89118 15.0195L-0.937248 17.8479C-0.416849 18.3683 0.28896 18.6607 1.02491 18.6607V14.6607ZM1.89118 15.0195C2.12093 15.2492 2.25 15.5609 2.25 15.8858H-1.75C-1.75 16.6217 -1.45765 17.3275 -0.937248 17.8479L1.89118 15.0195ZM2.25 15.8858V13.0093H-1.75V15.8858H2.25ZM2.25 13.0095C2.25016 11.703 2.76921 10.45 3.69303 9.526L0.864391 6.69778C-0.809327 8.37174 -1.74972 10.6419 -1.75 13.0091L2.25 13.0095ZM3.69502 9.524L4.2173 9.00017L1.38469 6.17593L0.862401 6.69977L3.69502 9.524ZM4.217 9.00047C4.10319 9.11457 3.968 9.20508 3.81917 9.26684L2.2861 5.57229C1.94898 5.71218 1.64277 5.9172 1.385 6.17562L4.217 9.00047ZM3.81917 9.26684C3.67033 9.3286 3.51077 9.36039 3.34963 9.36039V5.36039C2.98463 5.36039 2.62322 5.4324 2.2861 5.57229L3.81917 9.26684ZM3.34963 9.36039C3.18849 9.36039 3.02893 9.3286 2.88009 9.26684L4.41316 5.57229C4.07604 5.4324 3.71463 5.36039 3.34963 5.36039V9.36039ZM2.88009 9.26684C2.73126 9.20508 2.59607 9.11457 2.48227 9.00047L5.31427 6.17562C5.0565 5.9172 4.75028 5.71218 4.41316 5.57229L2.88009 9.26684ZM20.7613 5.7071C20.5028 5.96488 20.2978 6.2711 20.1579 6.60821L23.8525 8.14128C23.7907 8.2901 23.7002 8.4253 23.5861 8.5391L20.7613 5.7071ZM20.1579 6.60821C20.018 6.94533 19.946 7.30674 19.946 7.67174H23.946C23.946 7.83288 23.9142 7.99244 23.8525 8.14128L20.1579 6.60821ZM19.946 7.67174C19.946 8.03673 20.018 8.39815 20.1579 8.73527L23.8525 7.2022C23.9142 7.35104 23.946 7.5106 23.946 7.67174H19.946ZM20.1579 8.73527C20.2978 9.0724 20.5028 9.37861 20.7613 9.63637L23.5861 6.80437C23.7002 6.91818 23.7907 7.05337 23.8525 7.2022L20.1579 8.73527ZM20.7616 9.63668L21.2854 10.159L24.1096 7.32635L23.5858 6.80407L20.7616 9.63668ZM21.2833 10.1568C21.5968 10.4704 21.8455 10.8426 22.0152 11.2522L25.7107 9.72158C25.34 8.82663 24.7967 8.01345 24.1118 7.32848L21.2833 10.1568ZM22.0152 11.2522C22.1848 11.6619 22.2722 12.1009 22.2721 12.5443L26.2721 12.5444C26.2722 11.5757 26.0814 10.6165 25.7107 9.72158L22.0152 11.2522ZM22.2721 12.5444V15.8858H26.2721V12.5444H22.2721ZM22.2721 15.8858C22.2721 16.6217 22.5645 17.3275 23.0849 17.8479L25.9133 15.0195C26.1431 15.2492 26.2721 15.5609 26.2721 15.8858H22.2721ZM23.0849 17.8479C23.6053 18.3683 24.3111 18.6607 25.047 18.6607V14.6607C25.372 14.6607 25.6836 14.7897 25.9133 15.0195L23.0849 17.8479ZM25.047 18.6607C25.783 18.6607 26.4888 18.3683 27.0092 17.8479L24.1808 15.0195C24.4105 14.7897 24.7221 14.6607 25.047 14.6607V18.6607ZM27.0092 17.8479C27.5296 17.3275 27.822 16.6217 27.822 15.8858H23.822C23.822 15.5609 23.951 15.2492 24.1808 15.0195L27.0092 17.8479ZM27.822 15.8858V12.5444H23.822V15.8858H27.822ZM27.822 12.5441C27.8217 10.177 26.8813 7.9068 25.2076 6.23283L22.3789 9.06105C23.3027 9.98501 23.8218 11.238 23.822 12.5446L27.822 12.5441ZM25.2096 6.23483L24.6873 5.71099L21.8547 8.53522L22.3769 9.05906L25.2096 6.23483ZM24.687 5.71068C24.4292 5.45225 24.123 5.24723 23.7859 5.10735L22.2528 8.8019C22.104 8.74014 21.9688 8.64963 21.855 8.53553L24.687 5.71068ZM23.7859 5.10735C23.4487 4.96746 23.0873 4.89545 22.7223 4.89545V8.89545C22.5612 8.89545 22.4016 8.86366 22.2528 8.8019L23.7859 5.10735ZM22.7223 4.89545C22.3573 4.89545 21.9959 4.96746 21.6588 5.10735L23.1919 8.8019C23.043 8.86366 22.8835 8.89545 22.7223 8.89545V4.89545ZM21.6588 5.10735C21.3217 5.24723 21.0155 5.45225 20.7577 5.71068L23.5897 8.53553C23.4759 8.64963 23.3407 8.74014 23.1919 8.8019L21.6588 5.10735Z"
        fill="white" mask="url(#path-3-inside-2_322_477)" />
    <mask id="path-5-inside-3_322_477" fill="white">
        <path fill-rule="evenodd" clip-rule="evenodd"
            d="M19.6212 7.74908C18.7991 7.74908 18.0107 7.42251 17.4294 6.84122C16.8481 6.25992 16.5216 5.47152 16.5216 4.64945C16.5216 3.82737 16.8481 3.03897 17.4294 2.45768C18.0107 1.87638 18.7991 1.54982 19.6212 1.54982C20.4433 1.54982 21.2317 1.87638 21.813 2.45768C22.3942 3.03897 22.7208 3.82737 22.7208 4.64945C22.7208 5.47152 22.3942 6.25992 21.813 6.84122C21.2317 7.42251 20.4433 7.74908 19.6212 7.74908ZM19.6212 9.29889C19.0106 9.29889 18.406 9.17863 17.8419 8.94498C17.2778 8.71132 16.7653 8.36884 16.3335 7.9371C15.9018 7.50536 15.5593 6.99281 15.3257 6.42871C15.092 5.86462 14.9717 5.26002 14.9717 4.64945C14.9717 4.03887 15.092 3.43428 15.3257 2.87018C15.5593 2.30608 15.9018 1.79353 16.3335 1.36179C16.7653 0.930051 17.2778 0.587575 17.8419 0.353918C18.406 0.120262 19.0106 -9.09826e-09 19.6212 0C20.8543 1.83748e-08 22.0369 0.489851 22.9088 1.36179C23.7808 2.23373 24.2706 3.41634 24.2706 4.64945C24.2706 5.88256 23.7808 7.06516 22.9088 7.9371C22.0369 8.80904 20.8543 9.29889 19.6212 9.29889ZM12.647 14.3358C11.6194 14.3358 10.6339 14.744 9.9073 15.4706C9.18068 16.1972 8.77247 17.1827 8.77247 18.2103V20.2251C8.77247 20.4306 8.69083 20.6277 8.54551 20.773C8.40018 20.9184 8.20308 21 7.99756 21C7.79205 21 7.59495 20.9184 7.44962 20.773C7.3043 20.6277 7.22266 20.4306 7.22266 20.2251V18.2103C7.22266 16.7717 7.79415 15.392 8.81141 14.3747C9.82868 13.3575 11.2084 12.786 12.647 12.786C14.0856 12.786 15.4653 13.3575 16.4826 14.3747C17.4999 15.392 18.0714 16.7717 18.0714 18.2103V20.2251C18.0714 20.4306 17.9897 20.6277 17.8444 20.773C17.6991 20.9184 17.502 21 17.2965 21C17.0909 21 16.8938 20.9184 16.7485 20.773C16.6032 20.6277 16.5216 20.4306 16.5216 20.2251V18.2103C16.5216 17.7015 16.4213 17.1977 16.2266 16.7276C16.0319 16.2575 15.7465 15.8304 15.3867 15.4706C15.0269 15.1108 14.5998 14.8254 14.1297 14.6307C13.6597 14.436 13.1558 14.3358 12.647 14.3358Z" />
    </mask>
    <path fill-rule="evenodd" clip-rule="evenodd"
        d="M19.6212 7.74908C18.7991 7.74908 18.0107 7.42251 17.4294 6.84122C16.8481 6.25992 16.5216 5.47152 16.5216 4.64945C16.5216 3.82737 16.8481 3.03897 17.4294 2.45768C18.0107 1.87638 18.7991 1.54982 19.6212 1.54982C20.4433 1.54982 21.2317 1.87638 21.813 2.45768C22.3942 3.03897 22.7208 3.82737 22.7208 4.64945C22.7208 5.47152 22.3942 6.25992 21.813 6.84122C21.2317 7.42251 20.4433 7.74908 19.6212 7.74908ZM19.6212 9.29889C19.0106 9.29889 18.406 9.17863 17.8419 8.94498C17.2778 8.71132 16.7653 8.36884 16.3335 7.9371C15.9018 7.50536 15.5593 6.99281 15.3257 6.42871C15.092 5.86462 14.9717 5.26002 14.9717 4.64945C14.9717 4.03887 15.092 3.43428 15.3257 2.87018C15.5593 2.30608 15.9018 1.79353 16.3335 1.36179C16.7653 0.930051 17.2778 0.587575 17.8419 0.353918C18.406 0.120262 19.0106 -9.09826e-09 19.6212 0C20.8543 1.83748e-08 22.0369 0.489851 22.9088 1.36179C23.7808 2.23373 24.2706 3.41634 24.2706 4.64945C24.2706 5.88256 23.7808 7.06516 22.9088 7.9371C22.0369 8.80904 20.8543 9.29889 19.6212 9.29889ZM12.647 14.3358C11.6194 14.3358 10.6339 14.744 9.9073 15.4706C9.18068 16.1972 8.77247 17.1827 8.77247 18.2103V20.2251C8.77247 20.4306 8.69083 20.6277 8.54551 20.773C8.40018 20.9184 8.20308 21 7.99756 21C7.79205 21 7.59495 20.9184 7.44962 20.773C7.3043 20.6277 7.22266 20.4306 7.22266 20.2251V18.2103C7.22266 16.7717 7.79415 15.392 8.81141 14.3747C9.82868 13.3575 11.2084 12.786 12.647 12.786C14.0856 12.786 15.4653 13.3575 16.4826 14.3747C17.4999 15.392 18.0714 16.7717 18.0714 18.2103V20.2251C18.0714 20.4306 17.9897 20.6277 17.8444 20.773C17.6991 20.9184 17.502 21 17.2965 21C17.0909 21 16.8938 20.9184 16.7485 20.773C16.6032 20.6277 16.5216 20.4306 16.5216 20.2251V18.2103C16.5216 17.7015 16.4213 17.1977 16.2266 16.7276C16.0319 16.2575 15.7465 15.8304 15.3867 15.4706C15.0269 15.1108 14.5998 14.8254 14.1297 14.6307C13.6597 14.436 13.1558 14.3358 12.647 14.3358Z"
        fill="white" />
    <path
        d="M19.6212 1.54982V-0.450184V1.54982ZM19.6212 9.29889V11.2989V9.29889ZM19.6212 0V-2V0ZM24.2706 4.64945H26.2706H24.2706ZM12.647 14.3358V12.3358V14.3358ZM8.77247 18.2103H6.77247H8.77247ZM7.22266 18.2103H5.22266H7.22266ZM12.647 12.786V14.786V12.786ZM18.0714 18.2103H20.0714H18.0714ZM16.5216 18.2103H14.5215H16.5216ZM19.6212 5.74908C19.3295 5.74908 19.0498 5.63323 18.8436 5.427L16.0152 8.25543C16.9716 9.2118 18.2687 9.74908 19.6212 9.74908V5.74908ZM18.8436 5.427C18.6374 5.22078 18.5216 4.94109 18.5216 4.64945H14.5215C14.5215 6.00196 15.0588 7.29907 16.0152 8.25543L18.8436 5.427ZM18.5216 4.64945C18.5216 4.35781 18.6374 4.07811 18.8436 3.87189L16.0152 1.04346C15.0588 1.99983 14.5215 3.29694 14.5215 4.64945H18.5216ZM18.8436 3.87189C19.0498 3.66567 19.3295 3.54982 19.6212 3.54982V-0.450184C18.2687 -0.450184 16.9716 0.0870969 16.0152 1.04346L18.8436 3.87189ZM19.6212 3.54982C19.9128 3.54982 20.1925 3.66567 20.3987 3.87189L23.2272 1.04346C22.2708 0.0870969 20.9737 -0.450184 19.6212 -0.450184V3.54982ZM20.3987 3.87189C20.605 4.07811 20.7208 4.35781 20.7208 4.64945H24.7208C24.7208 3.29694 24.1835 1.99983 23.2272 1.04346L20.3987 3.87189ZM20.7208 4.64945C20.7208 4.94109 20.605 5.22078 20.3987 5.427L23.2272 8.25543C24.1835 7.29907 24.7208 6.00196 24.7208 4.64945H20.7208ZM20.3987 5.427C20.1925 5.63323 19.9128 5.74908 19.6212 5.74908V9.74908C20.9737 9.74908 22.2708 9.2118 23.2272 8.25543L20.3987 5.427ZM19.6212 7.29889C19.2732 7.29889 18.9287 7.23036 18.6073 7.09722L17.0765 10.7927C17.8833 11.1269 18.748 11.2989 19.6212 11.2989V7.29889ZM18.6073 7.09722C18.2858 6.96407 17.9938 6.76891 17.7477 6.52289L14.9193 9.35132C15.5368 9.96878 16.2698 10.4586 17.0765 10.7927L18.6073 7.09722ZM17.7477 6.52289C17.5017 6.27687 17.3066 5.98479 17.1734 5.66335L13.4779 7.19408C13.8121 8.00083 14.3019 8.73386 14.9193 9.35132L17.7477 6.52289ZM17.1734 5.66335C17.0403 5.3419 16.9717 4.99738 16.9717 4.64945H12.9717C12.9717 5.52266 13.1437 6.38733 13.4779 7.19408L17.1734 5.66335ZM16.9717 4.64945C16.9717 4.30152 17.0403 3.95699 17.1734 3.63555L13.4779 2.10481C13.1437 2.91156 12.9717 3.77623 12.9717 4.64945H16.9717ZM17.1734 3.63555C17.3066 3.3141 17.5017 3.02203 17.7477 2.77601L14.9193 -0.0524217C14.3019 0.565036 13.8121 1.29807 13.4779 2.10481L17.1734 3.63555ZM17.7477 2.77601C17.9938 2.52998 18.2858 2.33482 18.6073 2.20168L17.0765 -1.49384C16.2698 -1.15967 15.5368 -0.66988 14.9193 -0.0524217L17.7477 2.77601ZM18.6073 2.20168C18.9287 2.06853 19.2733 2 19.6212 2V-2C18.748 -2 17.8833 -1.82801 17.0765 -1.49384L18.6073 2.20168ZM19.6212 2C20.3239 2 20.9978 2.27914 21.4946 2.77601L24.323 -0.0524217C23.076 -1.29944 21.3847 -2 19.6212 -2V2ZM21.4946 2.77601C21.9915 3.27287 22.2706 3.94677 22.2706 4.64945H26.2706C26.2706 2.88591 25.5701 1.19459 24.323 -0.0524217L21.4946 2.77601ZM22.2706 4.64945C22.2706 5.35213 21.9915 6.02602 21.4946 6.52289L24.323 9.35132C25.5701 8.1043 26.2706 6.41299 26.2706 4.64945H22.2706ZM21.4946 6.52289C20.9978 7.01976 20.3239 7.29889 19.6212 7.29889V11.2989C21.3847 11.2989 23.076 10.5983 24.323 9.35132L21.4946 6.52289ZM12.647 12.3358C11.089 12.3358 9.59477 12.9547 8.49308 14.0564L11.3215 16.8848C11.6731 16.5333 12.1499 16.3358 12.647 16.3358V12.3358ZM8.49308 14.0564C7.39139 15.1581 6.77247 16.6523 6.77247 18.2103H10.7725C10.7725 17.7132 10.97 17.2364 11.3215 16.8848L8.49308 14.0564ZM6.77247 18.2103V20.2251H10.7725V18.2103H6.77247ZM6.77247 20.2251C6.77247 19.9002 6.90154 19.5886 7.13129 19.3588L9.95972 22.1873C10.4801 21.6669 10.7725 20.961 10.7725 20.2251H6.77247ZM7.13129 19.3588C7.36104 19.1291 7.67264 19 7.99756 19V23C8.73352 23 9.43933 22.7076 9.95972 22.1873L7.13129 19.3588ZM7.99756 19C8.32248 19 8.63409 19.1291 8.86384 19.3588L6.03541 22.1873C6.5558 22.7076 7.26161 23 7.99756 23V19ZM8.86384 19.3588C9.09358 19.5886 9.22266 19.9002 9.22266 20.2251H5.22266C5.22266 20.961 5.51501 21.6669 6.03541 22.1873L8.86384 19.3588ZM9.22266 20.2251V18.2103H5.22266V20.2251H9.22266ZM9.22266 18.2103C9.22266 17.3021 9.58344 16.4311 10.2256 15.789L7.3972 12.9605C6.00486 14.3529 5.22266 16.2413 5.22266 18.2103H9.22266ZM10.2256 15.789C10.8678 15.1468 11.7388 14.786 12.647 14.786V10.786C10.6779 10.786 8.78954 11.5682 7.3972 12.9605L10.2256 15.789ZM12.647 14.786C13.5552 14.786 14.4262 15.1468 15.0684 15.789L17.8968 12.9605C16.5045 11.5682 14.6161 10.786 12.647 10.786V14.786ZM15.0684 15.789C15.7106 16.4311 16.0714 17.3021 16.0714 18.2103H20.0714C20.0714 16.2413 19.2892 14.3529 17.8968 12.9605L15.0684 15.789ZM16.0714 18.2103V20.2251H20.0714V18.2103H16.0714ZM16.0714 20.2251C16.0714 19.9002 16.2004 19.5886 16.4302 19.3588L19.2586 22.1873C19.779 21.6668 20.0714 20.961 20.0714 20.2251H16.0714ZM16.4302 19.3588C16.6599 19.1291 16.9715 19 17.2965 19V23C18.0324 23 18.7382 22.7076 19.2586 22.1873L16.4302 19.3588ZM17.2965 19C17.6214 19 17.933 19.1291 18.1627 19.3588L15.3343 22.1873C15.8547 22.7076 16.5605 23 17.2965 23V19ZM18.1627 19.3588C18.3925 19.5886 18.5216 19.9002 18.5216 20.2251H14.5215C14.5215 20.961 14.8139 21.6669 15.3343 22.1873L18.1627 19.3588ZM18.5216 20.2251V18.2103H14.5215V20.2251H18.5216ZM18.5216 18.2103C18.5216 17.4389 18.3696 16.675 18.0744 15.9622L14.3789 17.493C14.4731 17.7204 14.5215 17.9642 14.5215 18.2103H18.5216ZM18.0744 15.9622C17.7792 15.2495 17.3464 14.6019 16.8009 14.0564L13.9725 16.8848C14.1466 17.0589 14.2847 17.2656 14.3789 17.493L18.0744 15.9622ZM16.8009 14.0564C16.2554 13.5109 15.6078 13.0782 14.8951 12.783L13.3644 16.4785C13.5918 16.5727 13.7984 16.7108 13.9725 16.8848L16.8009 14.0564ZM14.8951 12.783C14.1824 12.4877 13.4185 12.3358 12.647 12.3358V16.3358C12.8932 16.3358 13.1369 16.3843 13.3644 16.4785L14.8951 12.783Z"
        fill="white" mask="url(#path-5-inside-3_322_477)" />
    <mask id="path-7-inside-4_322_477" fill="white">
        <path fill-rule="evenodd" clip-rule="evenodd"
            d="M12.6494 12.011C13.4715 12.011 14.2599 11.6845 14.8412 11.1032C15.4225 10.5219 15.7491 9.73348 15.7491 8.91141C15.7491 8.08934 15.4225 7.30093 14.8412 6.71964C14.2599 6.13835 13.4715 5.81178 12.6494 5.81178C11.8274 5.81178 11.039 6.13835 10.4577 6.71964C9.87638 7.30093 9.54982 8.08934 9.54982 8.91141C9.54982 9.73348 9.87638 10.5219 10.4577 11.1032C11.039 11.6845 11.8274 12.011 12.6494 12.011ZM12.6494 13.5609C13.8826 13.5609 15.0652 13.071 15.9371 12.1991C16.809 11.3271 17.2989 10.1445 17.2989 8.91141C17.2989 7.6783 16.809 6.49569 15.9371 5.62375C15.0652 4.75181 13.8826 4.26196 12.6494 4.26196C11.4163 4.26196 10.2337 4.75181 9.36179 5.62375C8.48985 6.49569 8 7.6783 8 8.91141C8 10.1445 8.48985 11.3271 9.36179 12.1991C10.2337 13.071 11.4163 13.5609 12.6494 13.5609Z" />
    </mask>
    <path fill-rule="evenodd" clip-rule="evenodd"
        d="M12.6494 12.011C13.4715 12.011 14.2599 11.6845 14.8412 11.1032C15.4225 10.5219 15.7491 9.73348 15.7491 8.91141C15.7491 8.08934 15.4225 7.30093 14.8412 6.71964C14.2599 6.13835 13.4715 5.81178 12.6494 5.81178C11.8274 5.81178 11.039 6.13835 10.4577 6.71964C9.87638 7.30093 9.54982 8.08934 9.54982 8.91141C9.54982 9.73348 9.87638 10.5219 10.4577 11.1032C11.039 11.6845 11.8274 12.011 12.6494 12.011ZM12.6494 13.5609C13.8826 13.5609 15.0652 13.071 15.9371 12.1991C16.809 11.3271 17.2989 10.1445 17.2989 8.91141C17.2989 7.6783 16.809 6.49569 15.9371 5.62375C15.0652 4.75181 13.8826 4.26196 12.6494 4.26196C11.4163 4.26196 10.2337 4.75181 9.36179 5.62375C8.48985 6.49569 8 7.6783 8 8.91141C8 10.1445 8.48985 11.3271 9.36179 12.1991C10.2337 13.071 11.4163 13.5609 12.6494 13.5609Z"
        fill="white" />
    <path
        d="M12.6494 5.81178V3.81178V5.81178ZM9.54982 8.91141H7.54982H9.54982ZM12.6494 13.5609V15.5609V13.5609ZM12.6494 14.011C14.002 14.011 15.2991 13.4738 16.2554 12.5174L13.427 9.68897C13.2208 9.89519 12.9411 10.011 12.6494 10.011V14.011ZM16.2554 12.5174C17.2118 11.561 17.7491 10.2639 17.7491 8.91141H13.7491C13.7491 9.20305 13.6332 9.48274 13.427 9.68897L16.2554 12.5174ZM17.7491 8.91141C17.7491 7.5589 17.2118 6.26179 16.2554 5.30543L13.427 8.13385C13.6332 8.34008 13.7491 8.61977 13.7491 8.91141H17.7491ZM16.2554 5.30543C15.2991 4.34906 14.002 3.81178 12.6494 3.81178V7.81178C12.9411 7.81178 13.2208 7.92763 13.427 8.13385L16.2554 5.30543ZM12.6494 3.81178C11.2969 3.81178 9.99983 4.34906 9.04346 5.30543L11.8719 8.13385C12.0781 7.92763 12.3578 7.81178 12.6494 7.81178V3.81178ZM9.04346 5.30543C8.0871 6.26179 7.54982 7.5589 7.54982 8.91141H11.5498C11.5498 8.61977 11.6657 8.34008 11.8719 8.13385L9.04346 5.30543ZM7.54982 8.91141C7.54982 10.2639 8.0871 11.561 9.04346 12.5174L11.8719 9.68897C11.6657 9.48274 11.5498 9.20305 11.5498 8.91141H7.54982ZM9.04346 12.5174C9.99983 13.4738 11.2969 14.011 12.6494 14.011V10.011C12.3578 10.011 12.0781 9.89519 11.8719 9.68897L9.04346 12.5174ZM12.6494 15.5609C14.413 15.5609 16.1043 14.8603 17.3513 13.6133L14.5229 10.7849C14.026 11.2817 13.3521 11.5609 12.6494 11.5609V15.5609ZM17.3513 13.6133C18.5983 12.3663 19.2989 10.675 19.2989 8.91141H15.2989C15.2989 9.61409 15.0198 10.288 14.5229 10.7849L17.3513 13.6133ZM19.2989 8.91141C19.2989 7.14787 18.5983 5.45655 17.3513 4.20954L14.5229 7.03797C15.0198 7.53484 15.2989 8.20873 15.2989 8.91141H19.2989ZM17.3513 4.20954C16.1043 2.96253 14.413 2.26196 12.6494 2.26196V6.26196C13.3521 6.26196 14.026 6.5411 14.5229 7.03797L17.3513 4.20954ZM12.6494 2.26196C10.8859 2.26196 9.19459 2.96253 7.94758 4.20954L10.776 7.03797C11.2729 6.5411 11.9468 6.26196 12.6494 6.26196V2.26196ZM7.94758 4.20954C6.70056 5.45655 6 7.14787 6 8.91141H10C10 8.20873 10.2791 7.53484 10.776 7.03797L7.94758 4.20954ZM6 8.91141C6 10.675 6.70056 12.3663 7.94758 13.6133L10.776 10.7849C10.2791 10.288 10 9.61409 10 8.91141H6ZM7.94758 13.6133C9.19459 14.8603 10.8859 15.5609 12.6494 15.5609V11.5609C11.9468 11.5609 11.2729 11.2817 10.776 10.7849L7.94758 13.6133Z"
        fill="white" mask="url(#path-7-inside-4_322_477)" />
</svg>
    