<svg width="56" height="60" viewBox="0 0 56 60" fill="none" xmlns="http://www.w3.org/2000/svg">
    <circle cx="28.5" cy="28.5" r="26.5" fill="#EEECEC" />
    <mask id="mask0_322_514" style="mask-type:alpha" maskUnits="userSpaceOnUse" x="0" y="0"
        width="56" height="60">
        <path
            d="M37.9493 53.8967C34.8536 54.8768 30.9966 55.5472 27.4652 56.0637C26.9106 55.9514 26.3064 55.8361 25.6727 55.7152C25.5245 55.6869 25.3747 55.6583 25.2235 55.6294C22.3799 55.0853 18.9994 54.4087 16.3334 53.3389C15.0004 52.804 13.9009 52.1915 13.1448 51.49C12.4015 50.8004 12.0234 50.0599 12.0234 49.2245C12.0234 40.8772 18.9639 34.0791 27.5643 34.0791C36.1639 34.0791 43.6143 41.389 43.6143 49.7373C43.6143 50.4965 43.1731 51.2348 42.1702 51.9668C41.1668 52.6991 39.7092 53.3396 37.9493 53.8967ZM26.268 57.7498C26.6462 57.697 27.0313 57.6424 27.4217 57.5859C27.8247 57.6693 28.1925 57.7504 28.5196 57.8309C28.7094 57.8776 28.8801 57.9228 29.0317 57.9667C28.992 57.9812 28.9505 57.996 28.9072 58.0111C27.9654 58.3397 26.3848 58.739 23.9775 59.2388C22.3342 59.001 21.0925 58.7939 20.1912 58.6115C20.486 58.5612 20.8095 58.5098 21.1593 58.4571C22.0175 58.3279 23.0103 58.1936 24.1014 58.0461C24.7878 57.9532 25.513 57.8552 26.268 57.7498ZM29.7971 58.2649C29.797 58.2649 29.7954 58.2637 29.7926 58.2612C29.7958 58.2636 29.7972 58.2648 29.7971 58.2649ZM29.7681 57.6194C29.7704 57.6169 29.7718 57.6157 29.7718 57.6158C29.7719 57.6159 29.7707 57.6171 29.7681 57.6194Z"
            stroke="black" stroke-width="1.5" />
        <path
            d="M36.9222 21.5358C36.9222 26.7904 32.6944 31.0409 27.4904 31.0409C22.2864 31.0409 18.0586 26.7904 18.0586 21.5358C18.0586 16.2811 22.2864 12.0306 27.4904 12.0306C32.6944 12.0306 36.9222 16.2811 36.9222 21.5358Z"
            stroke="black" stroke-width="1.5" />
        <path
            d="M55.25 28.2016C55.25 43.3678 43.0447 55.6532 28 55.6532C12.9553 55.6532 0.75 43.3678 0.75 28.2016C0.75 13.0354 12.9553 0.75 28 0.75C43.0447 0.75 55.25 13.0354 55.25 28.2016Z"
            stroke="black" stroke-width="1.5" />
    </mask>
    <g mask="url(#mask0_322_514)">
        <ellipse cx="27.9988" cy="28.2016" rx="25.9636" ry="26.1506" fill="black" />
    </g>
</svg>
    