<svg width="50" height="51" viewBox="0 0 50 51" fill="none" xmlns="http://www.w3.org/2000/svg">
<g clip-path="url(#clip0_150_219)">
<path d="M50 25.1886C50 11.38 38.8086 0.188599 25 0.188599C11.1914 0.188599 0 11.38 0 25.1886C0 36.9073 8.07617 46.7511 18.9648 49.4562V32.8253H13.8086V25.1886H18.9648V21.8976C18.9648 13.3917 22.8125 9.44641 31.1719 9.44641C32.7539 9.44641 35.4883 9.75891 36.6113 10.0714V16.9855C36.0254 16.9269 35 16.8878 33.7207 16.8878C29.6191 16.8878 28.0371 18.4406 28.0371 22.4738V25.1886H36.2012L34.7949 32.8253H28.0273V50.0031C40.4102 48.5089 50 37.9718 50 25.1886Z" fill="#121ADA"/>
</g>
<defs>
<clipPath id="clip0_150_219">
<rect width="50" height="50" fill="white" transform="translate(0 0.188599)"/>
</clipPath>
</defs>
</svg>
