<svg width="26" height="26" viewBox="0 0 26 26" fill="none" xmlns="http://www.w3.org/2000/svg">
    <path
        d="M12.9987 24.6667C19.442 24.6667 24.6654 19.4433 24.6654 13C24.6654 6.55669 19.442 1.33334 12.9987 1.33334C6.55538 1.33334 1.33203 6.55669 1.33203 13C1.33203 19.4433 6.55538 24.6667 12.9987 24.6667Z"
        stroke="white" stroke-width="1.8" stroke-linecap="round" stroke-linejoin="round" />
    <path
        d="M9.60547 9.50002C9.87976 8.7203 10.4211 8.06281 11.1337 7.64401C11.8464 7.22521 12.6842 7.07212 13.4988 7.21185C14.3135 7.35159 15.0524 7.77514 15.5847 8.40747C16.117 9.03981 16.4084 9.84013 16.4071 10.6667C16.4071 13 12.9071 14.1667 12.9071 14.1667M13.0005 18.8334H13.0121"
        stroke="white" stroke-width="2" stroke-linecap="round" stroke-linejoin="round" />
</svg>
    