<svg width="25" height="27" viewBox="0 0 25 27" fill="none" xmlns="http://www.w3.org/2000/svg">
    <path
        d="M4.30384 25.6544C2.64317 25.6544 1.29688 24.3205 1.29688 22.6735V10.6929C1.29688 9.78778 1.71275 8.93027 2.42466 8.36541L10.6956 1.80752C11.224 1.38501 11.8886 1.15381 12.5747 1.15381C13.2609 1.15381 13.9255 1.38501 14.4539 1.80752L22.7234 8.36541C23.4367 8.93027 23.8526 9.78778 23.8526 10.6929V22.6735C23.8526 24.3205 22.5063 25.6544 20.8457 25.6544H4.30384Z"
        stroke="white" stroke-width="2" stroke-linecap="round" stroke-linejoin="round" />
    <path
        d="M8.81641 25.3622V17.8761C8.81641 17.1541 9.11346 16.4617 9.64221 15.9511C10.171 15.4406 10.8881 15.1538 11.6359 15.1538H13.0456C13.7934 15.1538 14.5105 15.4406 15.0393 15.9511C15.568 16.4617 15.8651 17.1541 15.8651 17.8761V25.3622"
        stroke="white" stroke-width="2" stroke-linecap="round" stroke-linejoin="round" />
</svg>
    