<svg width="50" height="51" viewBox="0 0 50 51" fill="none" xmlns="http://www.w3.org/2000/svg">
    <g clip-path="url(#clip0_150_222)">
        <path
            d="M25.0107 13.9581C17.9125 13.9581 12.1871 18.9679 12.1871 25.1788C12.1871 31.3898 17.9125 36.3995 25.0107 36.3995C32.109 36.3995 37.8344 31.3898 37.8344 25.1788C37.8344 18.9679 32.109 13.9581 25.0107 13.9581ZM25.0107 32.4738C20.4237 32.4738 16.6737 29.2023 16.6737 25.1788C16.6737 21.1554 20.4125 17.8839 25.0107 17.8839C29.609 17.8839 33.3478 21.1554 33.3478 25.1788C33.3478 29.2023 29.5978 32.4738 25.0107 32.4738ZM41.35 13.4991C41.35 14.9542 40.0107 16.1163 38.359 16.1163C36.696 16.1163 35.3679 14.9445 35.3679 13.4991C35.3679 12.0538 36.7072 10.882 38.359 10.882C40.0107 10.882 41.35 12.0538 41.35 13.4991ZM49.8433 16.1554C49.6536 12.6495 48.7384 9.54407 45.8032 6.98547C42.879 4.42688 39.3299 3.6261 35.3232 3.45032C31.1938 3.24524 18.8165 3.24524 14.6871 3.45032C10.6915 3.61633 7.14244 4.41711 4.20717 6.97571C1.2719 9.5343 0.367885 12.6398 0.166992 16.1456C-0.0673828 19.7589 -0.0673828 30.589 0.166992 34.2023C0.356724 37.7081 1.2719 40.8136 4.20717 43.3722C7.14244 45.9308 10.6804 46.7316 14.6871 46.9073C18.8165 47.1124 31.1938 47.1124 35.3232 46.9073C39.3299 46.7413 42.879 45.9406 45.8032 43.3722C48.7273 40.8136 49.6424 37.7081 49.8433 34.2023C50.0777 30.589 50.0777 19.7687 49.8433 16.1554ZM44.5085 38.0792C43.638 39.9933 41.9527 41.4679 39.754 42.2394C36.4616 43.382 28.6491 43.1183 25.0107 43.1183C21.3723 43.1183 13.5487 43.3722 10.2674 42.2394C8.07994 41.4777 6.39467 40.0031 5.51297 38.0792C4.20717 35.1984 4.50851 28.3624 4.50851 25.1788C4.50851 21.9952 4.21833 15.1495 5.51297 12.2784C6.38351 10.3644 8.06878 8.88977 10.2674 8.11829C13.5598 6.97571 21.3723 7.23938 25.0107 7.23938C28.6491 7.23938 36.4728 6.98547 39.754 8.11829C41.9415 8.88 43.6268 10.3546 44.5085 12.2784C45.8143 15.1593 45.513 21.9952 45.513 25.1788C45.513 28.3624 45.8143 35.2081 44.5085 38.0792Z"
            fill="#E1306C" />
    </g>
    <defs>
        <clipPath id="clip0_150_222">
            <rect width="50" height="50" fill="white" transform="translate(0 0.188599)" />
        </clipPath>
    </defs>
</svg>
    