<svg width="30" height="31" viewBox="0 0 30 31" fill="none" xmlns="http://www.w3.org/2000/svg">
    <path
        d="M15 4.19791C15.2486 4.19791 15.4871 4.29998 15.6629 4.48165C15.8387 4.66333 15.9375 4.90974 15.9375 5.16666C15.9375 5.42359 15.8387 5.67 15.6629 5.85167C15.4871 6.03335 15.2486 6.13541 15 6.13541C12.5965 6.13541 10.2914 7.12204 8.59185 8.87824C6.8923 10.6344 5.9375 13.0164 5.9375 15.5C5.9375 17.9836 6.8923 20.3656 8.59185 22.1218C10.2914 23.878 12.5965 24.8646 15 24.8646C15.2486 24.8646 15.4871 24.9666 15.6629 25.1483C15.8387 25.33 15.9375 25.5764 15.9375 25.8333C15.9375 26.0903 15.8387 26.3367 15.6629 26.5183C15.4871 26.7 15.2486 26.8021 15 26.8021C12.0992 26.8021 9.3172 25.6113 7.26602 23.4918C5.21484 21.3722 4.0625 18.4975 4.0625 15.5C4.0625 12.5025 5.21484 9.62777 7.26602 7.50822C9.3172 5.38867 12.0992 4.19791 15 4.19791Z"
        fill="white" />
    <path
        d="M20.5875 12.3096C20.4219 12.1259 20.3317 11.883 20.336 11.6321C20.3403 11.3811 20.4387 11.1416 20.6105 10.9642C20.7822 10.7867 21.014 10.685 21.2568 10.6806C21.4997 10.6761 21.7348 10.7693 21.9125 10.9404L25.6625 14.8154C25.8381 14.9971 25.9367 15.2433 25.9367 15.5C25.9367 15.7567 25.8381 16.0029 25.6625 16.1846L21.9125 20.0596C21.8267 20.1548 21.7232 20.2311 21.6082 20.284C21.4932 20.337 21.369 20.3655 21.2432 20.3678C21.1173 20.3701 20.9922 20.3461 20.8755 20.2974C20.7588 20.2487 20.6527 20.1762 20.5637 20.0842C20.4747 19.9922 20.4045 19.8826 20.3573 19.762C20.3102 19.6414 20.287 19.5121 20.2893 19.3821C20.2915 19.252 20.319 19.1237 20.3703 19.0049C20.4215 18.8861 20.4954 18.7791 20.5875 18.6904L22.7375 16.4687H12.5C12.2514 16.4687 12.0129 16.3667 11.8371 16.185C11.6613 16.0033 11.5625 15.7569 11.5625 15.5C11.5625 15.2431 11.6613 14.9967 11.8371 14.815C12.0129 14.6333 12.2514 14.5312 12.5 14.5312H22.7375L20.5875 12.3096Z"
        fill="white" />
</svg>
    