<svg width="39" height="32" viewBox="0 0 39 32" fill="none" xmlns="http://www.w3.org/2000/svg">
    <path
        d="M2.68537 12.1388L8.81217 7.19198C9.11006 6.95967 9.50904 6.83113 9.92317 6.83403C10.3373 6.83694 10.7335 6.97106 11.0263 7.20751C11.3192 7.44396 11.4853 7.76382 11.4889 8.0982C11.4925 8.43257 11.3333 8.75472 11.0456 8.99524L4.91875 13.9421C4.73672 14.092 4.57764 14.259 4.4449 14.4395C4.4686 14.4395 4.48755 14.4293 4.51124 14.4293L29.2838 14.4701C29.7027 14.4701 30.1045 14.6044 30.4007 14.8436C30.6969 15.0828 30.8633 15.4071 30.8633 15.7454C30.8633 16.0836 30.6969 16.408 30.4007 16.6471C30.1045 16.8863 29.7027 17.0207 29.2838 17.0207L4.52072 16.9799C4.4765 16.9799 4.44016 16.962 4.39752 16.9595C4.53762 17.1752 4.71528 17.3736 4.92507 17.5486L11.0519 22.4955C11.2027 22.6131 11.3231 22.7539 11.4058 22.9095C11.4886 23.065 11.5322 23.2324 11.534 23.4017C11.5358 23.5711 11.4959 23.739 11.4164 23.8957C11.337 24.0524 11.2197 24.1948 11.0714 24.3146C10.9231 24.4343 10.7468 24.529 10.5527 24.5931C10.3586 24.6573 10.1506 24.6895 9.94086 24.6881C9.73114 24.6866 9.52388 24.6514 9.33118 24.5846C9.13847 24.5177 8.96419 24.4206 8.81849 24.2988L2.69168 19.3519C1.50726 18.3953 0.841883 17.098 0.841883 15.7454C0.841883 14.3927 1.50726 13.0955 2.69168 12.1388H2.68537Z"
        fill="#10316B" />
    <path
        d="M27.6858 28.4993L30.8448 28.4993C32.1015 28.4993 33.3067 28.0963 34.1954 27.3788C35.084 26.6613 35.5832 25.6881 35.5832 24.6735L35.5832 6.81934C35.5832 5.80465 35.084 4.83153 34.1954 4.11403C33.3067 3.39654 32.1015 2.99346 30.8448 2.99346L27.6858 2.99346C27.2669 2.99346 26.8652 2.8591 26.569 2.61993C26.2728 2.38077 26.1063 2.05639 26.1063 1.71817C26.1063 1.37994 26.2728 1.05556 26.569 0.816396C26.8652 0.577232 27.2669 0.442871 27.6858 0.442871L30.8448 0.442871C32.9385 0.444896 34.9458 1.11735 36.4263 2.31273C37.9068 3.50811 38.7397 5.12882 38.7422 6.81934V24.6735C38.7397 26.364 37.9068 27.9847 36.4263 29.1801C34.9458 30.3754 32.9385 31.0479 30.8448 31.0499L27.6858 31.0499C27.2669 31.0499 26.8652 30.9156 26.569 30.6764C26.2728 30.4372 26.1063 30.1129 26.1063 29.7746C26.1063 29.4364 26.2728 29.112 26.569 28.8729C26.8652 28.6337 27.2669 28.4993 27.6858 28.4993Z"
        fill="#10316B" />
</svg>
    