<svg width="28" height="20" viewBox="0 0 28 20" fill="none" xmlns="http://www.w3.org/2000/svg">
    <path
        d="M3.375 17.653C3.375 17.653 5.68375 19.04 5.25 18.75C4.70382 18.3851 2.70739 17.0737 2.3425 16.5275C1.5 15.2663 1.5 13.5113 1.5 10C1.5 6.4875 1.5 4.73375 2.3425 3.4725C2.70739 2.92632 3.17632 2.45739 3.7225 2.0925C4.98375 1.25 6.73875 1.25 10.25 1.25H22.125C22.7275 1.375 23.8438 1.8025 24.2775 2.0925C24.8236 2.45744 25.2926 2.92636 25.6575 3.4725C26.5 4.73375 26.5 6.48875 26.5 10C26.5 13.5125 26.5 15.2663 25.6575 16.5275C25.2925 17.0736 24.8236 17.5425 24.2775 17.9075C23.0163 18.75 21.2613 18.75 17.75 18.75H5.875"
        stroke="white" stroke-width="1.2" stroke-linecap="round" />
    <path
        d="M10.25 6.25C9.25544 6.25 8.30161 6.64509 7.59835 7.34835C6.89509 8.05161 6.5 9.00544 6.5 10C6.5 10.9946 6.89509 11.9484 7.59835 12.6517C8.30161 13.3549 9.25544 13.75 10.25 13.75M17.75 6.25C18.7446 6.25 19.6984 6.64509 20.4017 7.34835C21.1049 8.05161 21.5 9.00544 21.5 10C21.5 10.9946 21.1049 11.9484 20.4017 12.6517C19.6984 13.3549 18.7446 13.75 17.75 13.75"
        stroke="white" stroke-width="1.2" />
    <path d="M10.25 1.25V18.75M17.75 1.25V18.75" stroke="white" stroke-width="1.2"
        stroke-linecap="round" />
</svg>
    