<svg width="25" height="23" viewBox="0 0 25 23" fill="none" xmlns="http://www.w3.org/2000/svg">
    <path
        d="M22.75 11.6709L16.1637 13.8989L16.163 13.8991C16.0942 13.9218 16.0223 13.9334 15.9499 13.9333M22.75 11.6709L15.95 13.8333M22.75 11.6709V19.0833C22.75 19.5214 22.5784 19.9412 22.2735 20.2506C21.9687 20.5598 21.5555 20.7333 21.125 20.7333H3.875C3.44449 20.7333 3.03132 20.5598 2.72646 20.2506C2.42155 19.9412 2.25 19.5214 2.25 19.0833V11.6709L8.83626 13.8989L8.83697 13.8991C8.90576 13.9218 8.97768 13.9334 9.05006 13.9333M22.75 11.6709L9.05 13.8333M15.9499 13.9333L15.95 13.8333M15.9499 13.9333H15.95V13.8333M15.9499 13.9333H9.05006M15.95 13.8333H9.05M9.05006 13.9333L9.05 13.8333M9.05006 13.9333H9.05V13.8333M21.1251 4.4H21.125H17.2V3.33333V3.33319C17.1991 2.68862 16.9462 2.07045 16.4966 1.61424C16.0468 1.15798 15.4368 0.900967 14.8002 0.9H14.8L10.2 0.9L10.1998 0.9C9.56319 0.900967 8.95318 1.15798 8.50345 1.61424C8.05375 2.07045 7.80095 2.68862 7.8 3.33319V3.33333V4.4L3.875 4.4L3.87492 4.4C3.08565 4.40064 2.32918 4.71902 1.77152 5.28475C1.21392 5.85044 0.90063 6.6172 0.9 7.41659V7.41667L0.9 19.0833L0.9 19.0834C0.90063 19.8828 1.21392 20.6496 1.77152 21.2152C2.32918 21.781 3.08565 22.0994 3.87492 22.1H3.875H21.125H21.1251C21.9144 22.0994 22.6708 21.781 23.2285 21.2152C23.7861 20.6496 24.0994 19.8828 24.1 19.0834V19.0833V7.41667V7.41659C24.0994 6.6172 23.7861 5.85044 23.2285 5.28475C22.6708 4.71902 21.9144 4.40064 21.1251 4.4ZM2.25 10.2435V7.41667C2.25 6.9786 2.42155 6.55876 2.72646 6.24943C3.03132 5.94015 3.44449 5.76667 3.875 5.76667H21.125C21.5555 5.76667 21.9687 5.94015 22.2735 6.24943C22.5784 6.55876 22.75 6.9786 22.75 7.41667V10.2447C22.7126 10.2492 22.6756 10.257 22.6394 10.2679L22.6394 10.2679L22.6363 10.2689L15.8404 12.5667H9.15961L2.36374 10.2678L2.36376 10.2677L2.36059 10.2668C2.32439 10.2558 2.28739 10.2481 2.25 10.2435ZM9.15 3.33333C9.15 3.04998 9.26097 2.77851 9.45805 2.57858C9.65507 2.37869 9.92199 2.26667 10.2 2.26667H14.8C15.078 2.26667 15.3449 2.37869 15.542 2.57858C15.739 2.77851 15.85 3.04998 15.85 3.33333V4.4H9.15V3.33333Z"
        fill="white" stroke="white" stroke-width="0.2" />
</svg>
    