<svg width="50" height="56" viewBox="0 0 50 56" fill="none" xmlns="http://www.w3.org/2000/svg">
    <path
        d="M44.8633 14.1045C44.8926 14.7084 44.8926 15.3257 44.8926 15.9296C44.8926 34.5423 34.5801 56 15.7324 56C9.92188 56 4.53125 53.6919 0 49.6795C0.820312 49.8137 1.62109 49.8539 2.4707 49.8539C7.26562 49.8539 11.6699 47.6263 15.1953 43.842C10.6934 43.7078 6.91406 39.6551 5.61523 34.0727C6.25 34.2069 6.88477 34.2874 7.54883 34.2874C8.4668 34.2874 9.38477 34.1129 10.2441 33.8043C5.54688 32.5026 2.03125 26.8262 2.03125 19.9823V19.8078C3.39844 20.8545 4.98047 21.5121 6.66016 21.5926C3.89648 19.0697 2.08984 14.7487 2.08984 9.86401C2.08984 7.24722 2.59766 4.84514 3.48633 2.75171C8.53516 11.2999 16.1133 16.8824 24.6191 17.4862C24.4629 16.4395 24.3652 15.3526 24.3652 14.2656C24.3652 6.50915 28.9355 0.188599 34.6094 0.188599C37.5586 0.188599 40.2246 1.89287 42.0996 4.63043C44.4141 4.02656 46.6406 2.84565 48.6035 1.23531C47.8418 4.50965 46.2207 7.24722 44.1016 8.99174C46.1621 8.6831 48.1641 7.90477 50 6.8178C48.6035 9.60904 46.8555 12.0916 44.8633 14.1045Z"
        fill="#39A3EB" />
</svg>
    